<mxfile host="app.diagrams.net" modified="2023-12-19T21:46:55.717Z" agent="Mozilla/5.0 (Windows NT 10.0; Win64; x64) AppleWebKit/537.36 (KHTML, like Gecko) Chrome/120.0.0.0 Safari/537.36" etag="YYj9zz6CCVB7Bi66r6sd" version="22.1.11" type="device">
  <diagram name="Page-1" id="LwL8YiyZpGmbyLK4yohq">
    <mxGraphModel dx="500" dy="265" grid="0" gridSize="10" guides="0" tooltips="1" connect="1" arrows="1" fold="1" page="1" pageScale="1" pageWidth="827" pageHeight="1169" math="0" shadow="0">
      <root>
        <mxCell id="0" />
        <mxCell id="1" parent="0" />
        <mxCell id="jyMuL7RgIt7ZfFBR_kQ6-34" value="" style="shape=mxgraph.basic.polygon;polyCoords=[[0.18,0.46],[0.56,0.16],[0.56,0.16],[0.56,0.16],[0.74,0.42],[0.72,0.83],[0.33,0.92]];fillColor=#dae8fc;strokeColor=#6c8ebf;" vertex="1" parent="1">
          <mxGeometry x="191" y="250" width="169" height="134" as="geometry" />
        </mxCell>
        <mxCell id="84yDJNaKQU7q9l6nTyuw-9" style="rounded=0;orthogonalLoop=1;jettySize=auto;html=1;entryX=0;entryY=0;entryDx=0;entryDy=0;endArrow=none;endFill=0;fillColor=#dae8fc;strokeColor=#6c8ebf;" parent="1" source="jyMuL7RgIt7ZfFBR_kQ6-48" target="84yDJNaKQU7q9l6nTyuw-7" edge="1">
          <mxGeometry relative="1" as="geometry" />
        </mxCell>
        <mxCell id="84yDJNaKQU7q9l6nTyuw-10" style="rounded=0;orthogonalLoop=1;jettySize=auto;html=1;entryX=0;entryY=1;entryDx=0;entryDy=0;endArrow=none;endFill=0;fillColor=#dae8fc;strokeColor=#6c8ebf;" parent="1" source="84yDJNaKQU7q9l6nTyuw-1" target="84yDJNaKQU7q9l6nTyuw-2" edge="1">
          <mxGeometry relative="1" as="geometry" />
        </mxCell>
        <mxCell id="84yDJNaKQU7q9l6nTyuw-1" value="" style="ellipse;whiteSpace=wrap;html=1;aspect=fixed;fillColor=#dae8fc;strokeColor=#6c8ebf;" parent="1" vertex="1">
          <mxGeometry x="189" y="240" width="7" height="7" as="geometry" />
        </mxCell>
        <mxCell id="jyMuL7RgIt7ZfFBR_kQ6-2" style="rounded=0;orthogonalLoop=1;jettySize=auto;html=1;entryX=0.5;entryY=0;entryDx=0;entryDy=0;endArrow=none;endFill=0;fillColor=#dae8fc;strokeColor=#6c8ebf;" edge="1" parent="1" source="84yDJNaKQU7q9l6nTyuw-2" target="84yDJNaKQU7q9l6nTyuw-7">
          <mxGeometry relative="1" as="geometry" />
        </mxCell>
        <mxCell id="jyMuL7RgIt7ZfFBR_kQ6-43" value="&lt;font style=&quot;font-size: 6px;&quot;&gt;&lt;b&gt;50 &lt;/b&gt;ml&lt;/font&gt;" style="edgeLabel;html=1;align=center;verticalAlign=middle;resizable=0;points=[];" vertex="1" connectable="0" parent="jyMuL7RgIt7ZfFBR_kQ6-2">
          <mxGeometry x="-0.4996" relative="1" as="geometry">
            <mxPoint as="offset" />
          </mxGeometry>
        </mxCell>
        <mxCell id="84yDJNaKQU7q9l6nTyuw-2" value="" style="ellipse;whiteSpace=wrap;html=1;aspect=fixed;fillColor=#dae8fc;strokeColor=#6c8ebf;" parent="1" vertex="1">
          <mxGeometry x="321" y="165" width="7" height="7" as="geometry" />
        </mxCell>
        <mxCell id="84yDJNaKQU7q9l6nTyuw-11" style="rounded=0;orthogonalLoop=1;jettySize=auto;html=1;entryX=1;entryY=1;entryDx=0;entryDy=0;endArrow=none;endFill=0;fillColor=#dae8fc;strokeColor=#6c8ebf;" parent="1" source="84yDJNaKQU7q9l6nTyuw-5" target="84yDJNaKQU7q9l6nTyuw-2" edge="1">
          <mxGeometry relative="1" as="geometry" />
        </mxCell>
        <mxCell id="jyMuL7RgIt7ZfFBR_kQ6-3" style="rounded=0;orthogonalLoop=1;jettySize=auto;html=1;entryX=1;entryY=0;entryDx=0;entryDy=0;endArrow=none;endFill=0;fillColor=#dae8fc;strokeColor=#6c8ebf;" edge="1" parent="1" source="jyMuL7RgIt7ZfFBR_kQ6-51" target="84yDJNaKQU7q9l6nTyuw-7">
          <mxGeometry relative="1" as="geometry" />
        </mxCell>
        <mxCell id="84yDJNaKQU7q9l6nTyuw-5" value="" style="ellipse;whiteSpace=wrap;html=1;aspect=fixed;fillColor=#dae8fc;strokeColor=#6c8ebf;" parent="1" vertex="1">
          <mxGeometry x="408" y="206" width="7" height="7" as="geometry" />
        </mxCell>
        <mxCell id="84yDJNaKQU7q9l6nTyuw-12" style="rounded=0;orthogonalLoop=1;jettySize=auto;html=1;entryX=0.5;entryY=1;entryDx=0;entryDy=0;endArrow=none;endFill=0;fillColor=#dae8fc;strokeColor=#6c8ebf;" parent="1" source="84yDJNaKQU7q9l6nTyuw-6" target="84yDJNaKQU7q9l6nTyuw-5" edge="1">
          <mxGeometry relative="1" as="geometry" />
        </mxCell>
        <mxCell id="84yDJNaKQU7q9l6nTyuw-6" value="" style="ellipse;whiteSpace=wrap;html=1;aspect=fixed;fillColor=#dae8fc;strokeColor=#6c8ebf;" parent="1" vertex="1">
          <mxGeometry x="421" y="334" width="7" height="7" as="geometry" />
        </mxCell>
        <mxCell id="jyMuL7RgIt7ZfFBR_kQ6-1" style="rounded=0;orthogonalLoop=1;jettySize=auto;html=1;entryX=0;entryY=1;entryDx=0;entryDy=0;endArrow=none;endFill=0;fillColor=#dae8fc;strokeColor=#6c8ebf;" edge="1" parent="1" source="84yDJNaKQU7q9l6nTyuw-7" target="84yDJNaKQU7q9l6nTyuw-6">
          <mxGeometry relative="1" as="geometry" />
        </mxCell>
        <mxCell id="84yDJNaKQU7q9l6nTyuw-7" value="" style="ellipse;whiteSpace=wrap;html=1;aspect=fixed;fillColor=#dae8fc;strokeColor=#6c8ebf;" parent="1" vertex="1">
          <mxGeometry x="245" y="370" width="7" height="7" as="geometry" />
        </mxCell>
        <mxCell id="jyMuL7RgIt7ZfFBR_kQ6-35" value="&lt;font style=&quot;&quot;&gt;&lt;b&gt;&lt;font style=&quot;font-size: 5px;&quot;&gt;P&lt;/font&gt;&lt;font style=&quot;font-size: 4px;&quot;&gt;1&lt;/font&gt;&lt;/b&gt;&lt;font style=&quot;font-size: 5px;&quot;&gt; = 200,000&lt;/font&gt;&lt;/font&gt;" style="text;html=1;strokeColor=none;fillColor=none;align=center;verticalAlign=middle;whiteSpace=wrap;rounded=0;" vertex="1" parent="1">
          <mxGeometry x="233" y="375" width="33" height="14" as="geometry" />
        </mxCell>
        <mxCell id="jyMuL7RgIt7ZfFBR_kQ6-38" value="&lt;font style=&quot;&quot;&gt;&lt;b&gt;&lt;font style=&quot;font-size: 5px;&quot;&gt;P&lt;/font&gt;&lt;font style=&quot;font-size: 4px;&quot;&gt;2&lt;/font&gt;&lt;/b&gt;&lt;font style=&quot;font-size: 5px;&quot;&gt;&amp;nbsp;= 100,000&lt;/font&gt;&lt;/font&gt;" style="text;html=1;strokeColor=none;fillColor=none;align=center;verticalAlign=middle;whiteSpace=wrap;rounded=0;" vertex="1" parent="1">
          <mxGeometry x="160" y="244" width="33" height="14" as="geometry" />
        </mxCell>
        <mxCell id="jyMuL7RgIt7ZfFBR_kQ6-39" value="&lt;font style=&quot;&quot;&gt;&lt;b&gt;&lt;font style=&quot;font-size: 5px;&quot;&gt;P&lt;/font&gt;&lt;font style=&quot;font-size: 4px;&quot;&gt;3&lt;/font&gt;&lt;/b&gt;&lt;font style=&quot;font-size: 5px;&quot;&gt;&lt;b&gt;&amp;nbsp;&lt;/b&gt;= 200,000&lt;/font&gt;&lt;/font&gt;" style="text;html=1;strokeColor=none;fillColor=none;align=center;verticalAlign=middle;whiteSpace=wrap;rounded=0;" vertex="1" parent="1">
          <mxGeometry x="309" y="146" width="33" height="14" as="geometry" />
        </mxCell>
        <mxCell id="jyMuL7RgIt7ZfFBR_kQ6-40" value="&lt;font style=&quot;&quot;&gt;&lt;b&gt;&lt;font style=&quot;font-size: 5px;&quot;&gt;P&lt;/font&gt;&lt;font style=&quot;font-size: 4px;&quot;&gt;4&lt;/font&gt;&lt;/b&gt;&lt;font style=&quot;font-size: 5px;&quot;&gt;&amp;nbsp;= 500,000&lt;/font&gt;&lt;/font&gt;" style="text;html=1;strokeColor=none;fillColor=none;align=center;verticalAlign=middle;whiteSpace=wrap;rounded=0;" vertex="1" parent="1">
          <mxGeometry x="396" y="188" width="33" height="14" as="geometry" />
        </mxCell>
        <mxCell id="jyMuL7RgIt7ZfFBR_kQ6-41" value="&lt;font style=&quot;&quot;&gt;&lt;b&gt;&lt;font style=&quot;font-size: 5px;&quot;&gt;P&lt;/font&gt;&lt;font style=&quot;font-size: 4px;&quot;&gt;5&lt;/font&gt;&lt;/b&gt;&lt;font style=&quot;font-size: 5px;&quot;&gt;&amp;nbsp;= 400,000&lt;/font&gt;&lt;/font&gt;" style="text;html=1;strokeColor=none;fillColor=none;align=center;verticalAlign=middle;whiteSpace=wrap;rounded=0;" vertex="1" parent="1">
          <mxGeometry x="407" y="340" width="33" height="14" as="geometry" />
        </mxCell>
        <mxCell id="jyMuL7RgIt7ZfFBR_kQ6-46" value="&lt;font style=&quot;font-size: 6px;&quot;&gt;&lt;b&gt;45 &lt;/b&gt;ml&lt;/font&gt;" style="edgeLabel;html=1;align=center;verticalAlign=middle;resizable=0;points=[];" vertex="1" connectable="0" parent="1">
          <mxGeometry x="365.0041127006609" y="348.00214195661135" as="geometry">
            <mxPoint x="8" y="-2" as="offset" />
          </mxGeometry>
        </mxCell>
        <mxCell id="jyMuL7RgIt7ZfFBR_kQ6-49" value="" style="rounded=0;orthogonalLoop=1;jettySize=auto;html=1;entryX=0;entryY=0;entryDx=0;entryDy=0;endArrow=none;endFill=0;fillColor=#dae8fc;strokeColor=#6c8ebf;" edge="1" parent="1" source="84yDJNaKQU7q9l6nTyuw-1" target="jyMuL7RgIt7ZfFBR_kQ6-48">
          <mxGeometry relative="1" as="geometry">
            <mxPoint x="194" y="247" as="sourcePoint" />
            <mxPoint x="246" y="371" as="targetPoint" />
          </mxGeometry>
        </mxCell>
        <mxCell id="jyMuL7RgIt7ZfFBR_kQ6-48" value="" style="ellipse;whiteSpace=wrap;html=1;aspect=fixed;fillColor=#dae8fc;strokeColor=#6c8ebf;" vertex="1" parent="1">
          <mxGeometry x="218" y="308" width="7" height="7" as="geometry" />
        </mxCell>
        <mxCell id="jyMuL7RgIt7ZfFBR_kQ6-50" value="" style="ellipse;whiteSpace=wrap;html=1;aspect=fixed;fillColor=#dae8fc;strokeColor=#6c8ebf;" vertex="1" parent="1">
          <mxGeometry x="282" y="269" width="7" height="7" as="geometry" />
        </mxCell>
        <mxCell id="jyMuL7RgIt7ZfFBR_kQ6-52" value="" style="rounded=0;orthogonalLoop=1;jettySize=auto;html=1;entryX=1;entryY=0;entryDx=0;entryDy=0;endArrow=none;endFill=0;fillColor=#dae8fc;strokeColor=#6c8ebf;" edge="1" parent="1" source="84yDJNaKQU7q9l6nTyuw-5" target="jyMuL7RgIt7ZfFBR_kQ6-51">
          <mxGeometry relative="1" as="geometry">
            <mxPoint x="409" y="212" as="sourcePoint" />
            <mxPoint x="251" y="371" as="targetPoint" />
          </mxGeometry>
        </mxCell>
        <mxCell id="jyMuL7RgIt7ZfFBR_kQ6-51" value="" style="ellipse;whiteSpace=wrap;html=1;aspect=fixed;fillColor=#dae8fc;strokeColor=#6c8ebf;" vertex="1" parent="1">
          <mxGeometry x="312" y="303" width="7" height="7" as="geometry" />
        </mxCell>
        <mxCell id="jyMuL7RgIt7ZfFBR_kQ6-53" value="" style="ellipse;whiteSpace=wrap;html=1;aspect=fixed;fillColor=#dae8fc;strokeColor=#6c8ebf;" vertex="1" parent="1">
          <mxGeometry x="309" y="358" width="7" height="7" as="geometry" />
        </mxCell>
        <mxCell id="jyMuL7RgIt7ZfFBR_kQ6-55" value="&lt;b style=&quot;border-color: var(--border-color); color: rgb(0, 0, 0); font-family: Helvetica; font-style: normal; font-variant-ligatures: normal; font-variant-caps: normal; letter-spacing: normal; orphans: 2; text-align: center; text-indent: 0px; text-transform: none; widows: 2; word-spacing: 0px; -webkit-text-stroke-width: 0px; background-color: rgb(251, 251, 251); text-decoration-thickness: initial; text-decoration-style: initial; text-decoration-color: initial;&quot;&gt;&lt;font style=&quot;border-color: var(--border-color); font-size: 5px;&quot;&gt;D&lt;/font&gt;&lt;font style=&quot;font-size: 4px; border-color: var(--border-color);&quot;&gt;2&lt;/font&gt;&lt;/b&gt;" style="text;whiteSpace=wrap;html=1;" vertex="1" parent="1">
          <mxGeometry x="209" y="300" width="10.17" height="9" as="geometry" />
        </mxCell>
        <mxCell id="jyMuL7RgIt7ZfFBR_kQ6-56" value="&lt;b style=&quot;border-color: var(--border-color); color: rgb(0, 0, 0); font-family: Helvetica; font-style: normal; font-variant-ligatures: normal; font-variant-caps: normal; letter-spacing: normal; orphans: 2; text-align: center; text-indent: 0px; text-transform: none; widows: 2; word-spacing: 0px; -webkit-text-stroke-width: 0px; background-color: rgb(251, 251, 251); text-decoration-thickness: initial; text-decoration-style: initial; text-decoration-color: initial;&quot;&gt;&lt;font style=&quot;border-color: var(--border-color); font-size: 5px;&quot;&gt;D&lt;/font&gt;&lt;font style=&quot;border-color: var(--border-color); font-size: 4px;&quot;&gt;3&lt;/font&gt;&lt;/b&gt;" style="text;whiteSpace=wrap;html=1;" vertex="1" parent="1">
          <mxGeometry x="290" y="253" width="10.17" height="9" as="geometry" />
        </mxCell>
        <mxCell id="jyMuL7RgIt7ZfFBR_kQ6-57" value="&lt;b style=&quot;border-color: var(--border-color); color: rgb(0, 0, 0); font-family: Helvetica; font-style: normal; font-variant-ligatures: normal; font-variant-caps: normal; letter-spacing: normal; orphans: 2; text-align: center; text-indent: 0px; text-transform: none; widows: 2; word-spacing: 0px; -webkit-text-stroke-width: 0px; background-color: rgb(251, 251, 251); text-decoration-thickness: initial; text-decoration-style: initial; text-decoration-color: initial;&quot;&gt;&lt;font style=&quot;border-color: var(--border-color); font-size: 5px;&quot;&gt;D&lt;/font&gt;&lt;font style=&quot;border-color: var(--border-color); font-size: 4px;&quot;&gt;4&lt;/font&gt;&lt;/b&gt;" style="text;whiteSpace=wrap;html=1;" vertex="1" parent="1">
          <mxGeometry x="319" y="296" width="10.17" height="9" as="geometry" />
        </mxCell>
        <mxCell id="jyMuL7RgIt7ZfFBR_kQ6-59" value="&lt;b style=&quot;border-color: var(--border-color); color: rgb(0, 0, 0); font-family: Helvetica; font-style: normal; font-variant-ligatures: normal; font-variant-caps: normal; letter-spacing: normal; orphans: 2; text-align: center; text-indent: 0px; text-transform: none; widows: 2; word-spacing: 0px; -webkit-text-stroke-width: 0px; background-color: rgb(251, 251, 251); text-decoration-thickness: initial; text-decoration-style: initial; text-decoration-color: initial;&quot;&gt;&lt;font style=&quot;border-color: var(--border-color); font-size: 5px;&quot;&gt;D&lt;/font&gt;&lt;font style=&quot;border-color: var(--border-color); font-size: 4px;&quot;&gt;5&lt;/font&gt;&lt;/b&gt;" style="text;whiteSpace=wrap;html=1;" vertex="1" parent="1">
          <mxGeometry x="315" y="354" width="10.17" height="9" as="geometry" />
        </mxCell>
        <mxCell id="jyMuL7RgIt7ZfFBR_kQ6-44" value="&lt;font style=&quot;font-size: 6px; background-color: rgb(255, 255, 255);&quot;&gt;&lt;b&gt;30 &lt;/b&gt;ml&lt;/font&gt;" style="edgeLabel;html=1;align=center;verticalAlign=middle;resizable=0;points=[];" vertex="1" connectable="0" parent="1">
          <mxGeometry x="203.00411270066093" y="272.00214195661135" as="geometry">
            <mxPoint x="-3" y="-7" as="offset" />
          </mxGeometry>
        </mxCell>
        <mxCell id="jyMuL7RgIt7ZfFBR_kQ6-45" value="&lt;font style=&quot;font-size: 6px;&quot;&gt;&lt;b&gt;55 &lt;/b&gt;ml&lt;/font&gt;" style="edgeLabel;html=1;align=center;verticalAlign=middle;resizable=0;points=[];" vertex="1" connectable="0" parent="1">
          <mxGeometry x="362.0041127006609" y="260.00214195661135" as="geometry">
            <mxPoint x="4" y="-1" as="offset" />
          </mxGeometry>
        </mxCell>
      </root>
    </mxGraphModel>
  </diagram>
</mxfile>
